<svg width="26" height="26" viewBox="0 0 26 26" fill="none" xmlns="http://www.w3.org/2000/svg">
<g clip-path="url(#clip0_10566_26849)">
<path d="M24.5212 20.7838C24.7277 20.623 24.8923 20.4147 25.001 20.1766C25.1097 19.9386 25.1593 19.6778 25.1456 19.4164C25.1319 19.1551 25.0553 18.9009 24.9222 18.6756C24.7892 18.4502 24.6037 18.2603 24.3815 18.122L24.375 8.66125L22.75 9.75V18.1187C22.5301 18.2567 22.3464 18.4454 22.2143 18.669C22.0823 18.8925 22.0058 19.1445 21.9911 19.4037C21.9765 19.6629 22.0242 19.9219 22.1302 20.1589C22.2362 20.3959 22.3975 20.604 22.6005 20.7659L21.9862 21.5816C21.44 22.2766 21.1373 23.132 21.125 24.0159V26.0016H22.4494C22.7675 26.0016 23.0766 25.8955 23.3276 25.7C23.5787 25.5046 23.7574 25.231 23.8355 24.9226L24.3734 22.7516V26.0016H25.9984V24.0354C25.9843 23.1472 25.6795 22.2882 25.1306 21.5898L24.5212 20.7838ZM13 0L0 6.5L13 14.625L26 6.5L13 0Z" fill="white"/>
<path d="M13 16.2501L4.875 10.8389V13.6176C4.875 15.0964 9.6525 19.5001 13 19.5001C16.3475 19.5001 21.125 15.0964 21.125 13.6176V10.8389L13 16.2501Z" fill="white"/>
</g>
<defs>
<clipPath id="clip0_10566_26849">
<rect width="26" height="26" fill="white"/>
</clipPath>
</defs>
</svg>
