<svg width="22" height="20" viewBox="0 0 22 20" fill="none" xmlns="http://www.w3.org/2000/svg">
<path d="M15.3021 0C17.1076 0 18.62 0.668055 19.8391 2.00417C21.0582 3.34028 21.6674 4.92917 21.6667 6.77083C21.6667 7.09583 21.6486 7.4165 21.6125 7.73283C21.5764 8.04917 21.5132 8.36044 21.4229 8.66667H14.6521L12.8104 5.90417C12.7201 5.75972 12.5937 5.64236 12.4312 5.55208C12.2687 5.46181 12.0972 5.41667 11.9167 5.41667C11.6819 5.41667 11.47 5.48889 11.2807 5.63333C11.0915 5.77778 10.9604 5.95833 10.8875 6.175L9.425 10.5625L8.47708 9.15417C8.3868 9.00972 8.26042 8.89236 8.09792 8.80208C7.93542 8.71181 7.76389 8.66667 7.58333 8.66667H0.24375C0.153472 8.35972 0.0902777 8.04844 0.0541666 7.73283C0.0180555 7.41722 0 7.10558 0 6.79792C0 4.93819 0.604861 3.34028 1.81458 2.00417C3.02431 0.668055 4.53194 0 6.3375 0C7.20417 0 8.02136 0.171528 8.78908 0.514583C9.5568 0.857639 10.2382 1.33611 10.8333 1.95C11.4111 1.33611 12.0839 0.857639 12.8516 0.514583C13.6193 0.171528 14.4361 0 15.3021 0ZM10.8333 19.5C10.5083 19.5 10.1971 19.4415 9.8995 19.3245C9.60194 19.2075 9.33544 19.0313 9.1 18.7958L1.84167 11.5104C1.73333 11.4021 1.63403 11.2937 1.54375 11.1854C1.45347 11.0771 1.36319 10.9597 1.27292 10.8333H6.9875L8.82917 13.5958C8.91944 13.7403 9.04583 13.8576 9.20833 13.9479C9.37083 14.0382 9.54236 14.0833 9.72292 14.0833C9.95764 14.0833 10.1743 14.0111 10.3729 13.8667C10.5715 13.7222 10.7069 13.5417 10.7792 13.325L12.2417 8.9375L13.1625 10.3458C13.2708 10.4903 13.4062 10.6076 13.5687 10.6979C13.7312 10.7882 13.9028 10.8333 14.0833 10.8333H20.3667L20.0958 11.1583L19.825 11.4833L12.5396 18.7958C12.3049 19.0306 12.0431 19.2068 11.7542 19.3245C11.4653 19.4422 11.1583 19.5007 10.8333 19.5Z" fill="white"/>
</svg>
