<svg width="34" height="34" viewBox="0 0 34 34" fill="none" xmlns="http://www.w3.org/2000/svg">
<path d="M21.2497 4.25C21.9645 4.24977 22.653 4.51974 23.1771 5.00579C23.7013 5.49183 24.0223 6.15803 24.0759 6.87083L24.083 7.08333C24.0831 7.43032 24.2104 7.76523 24.441 8.02453C24.6716 8.28383 24.9893 8.44949 25.3339 8.49008L25.4997 8.5H26.9163C28.0004 8.49994 29.0435 8.91413 29.8322 9.65782C30.6209 10.4015 31.0957 11.4185 31.1593 12.5007L31.1663 12.75V25.5C31.1664 26.584 30.7522 27.6271 30.0085 28.4159C29.2648 29.2046 28.2479 29.6793 27.1657 29.7429L26.9163 29.75H7.08301C5.99896 29.7501 4.95586 29.3359 4.16714 28.5922C3.37841 27.8485 2.90369 26.8315 2.84009 25.7493L2.83301 25.5V12.75C2.83295 11.666 3.24714 10.6229 3.99083 9.83413C4.73452 9.04541 5.75149 8.57068 6.83367 8.50708L7.08301 8.5H8.49967C8.8754 8.5 9.23573 8.35074 9.50141 8.08507C9.76709 7.81939 9.91634 7.45906 9.91634 7.08333C9.91612 6.36852 10.1861 5.68003 10.6721 5.15589C11.1582 4.63175 11.8244 4.31069 12.5372 4.25708L12.7497 4.25H21.2497ZM16.9997 14.1667C15.9465 14.1666 14.9308 14.5575 14.1495 15.2637C13.3682 15.9699 12.8769 16.941 12.7709 17.9888L12.7553 18.2042L12.7497 18.4167L12.7553 18.6292C12.7969 19.4597 13.0812 20.2597 13.573 20.9302C14.0648 21.6007 14.7425 22.1123 15.5221 22.4014C16.3018 22.6906 17.1491 22.7447 17.9592 22.557C18.7693 22.3694 19.5065 21.9482 20.0796 21.3456C20.6526 20.7431 21.0364 19.9857 21.1832 19.1673C21.3301 18.3488 21.2336 17.5052 20.9058 16.741C20.5779 15.9769 20.0331 15.3257 19.3388 14.8681C18.6445 14.4105 17.8312 14.1666 16.9997 14.1667Z" fill="#524C4C"/>
</svg>
