<svg width="39" height="39" viewBox="0 0 39 39" fill="none" xmlns="http://www.w3.org/2000/svg">
<path fill-rule="evenodd" clip-rule="evenodd" d="M32 6.40039C32.8486 6.40039 33.6626 6.73753 34.2627 7.33765C34.8628 7.93777 35.2 8.7517 35.2 9.60039V28.8004C35.2 29.6491 34.8628 30.463 34.2627 31.0631C33.6626 31.6632 32.8486 32.0004 32 32.0004H6.39995C5.55126 32.0004 4.73733 31.6632 4.13721 31.0631C3.53709 30.463 3.19995 29.6491 3.19995 28.8004V9.60039C3.19995 8.7517 3.53709 7.93777 4.13721 7.33765C4.73733 6.73753 5.55126 6.40039 6.39995 6.40039H32ZM15.2 19.2004H12C10.9844 19.2002 10.0068 19.5864 9.26548 20.2805C8.52414 20.9745 8.07457 21.9246 8.00795 22.938L7.99995 23.2004V24.0004C8.0004 24.4082 8.15656 24.8004 8.43651 25.097C8.71646 25.3935 9.09908 25.572 9.50618 25.5959C9.91329 25.6198 10.3142 25.4873 10.6269 25.2256C10.9396 24.9638 11.1406 24.5925 11.1888 24.1876L11.2 24.0004V23.2004C11.1999 23.0131 11.2655 22.8318 11.3854 22.688C11.5052 22.5441 11.6718 22.4469 11.856 22.4132L12 22.4004H15.2C15.3872 22.4003 15.5685 22.4659 15.7124 22.5858C15.8562 22.7057 15.9534 22.8722 15.9872 23.0564L16 23.2004V24.0004C16.0004 24.4082 16.1566 24.8004 16.4365 25.097C16.7165 25.3935 17.0991 25.572 17.5062 25.5959C17.9133 25.6198 18.3142 25.4873 18.6269 25.2256C18.9396 24.9638 19.1406 24.5925 19.1888 24.1876L19.2 24.0004V23.2004C19.2001 22.1848 18.814 21.2073 18.1199 20.4659C17.4258 19.7246 16.4757 19.275 15.4624 19.2084L15.2 19.2004ZM28.8 20.8004H22.4L22.2128 20.8116C21.8239 20.8578 21.4655 21.0451 21.2054 21.3379C20.9454 21.6307 20.8017 22.0088 20.8017 22.4004C20.8017 22.792 20.9454 23.17 21.2054 23.4628C21.4655 23.7557 21.8239 23.9429 22.2128 23.9892L22.4 24.0004H28.8L28.9872 23.9892C29.376 23.9429 29.7344 23.7557 29.9945 23.4628C30.2545 23.17 30.3982 22.792 30.3982 22.4004C30.3982 22.0088 30.2545 21.6307 29.9945 21.3379C29.7344 21.0451 29.376 20.8578 28.9872 20.8116L28.8 20.8004ZM25.6 16.0004H22.4C21.9921 16.0008 21.5999 16.157 21.3034 16.4369C21.0068 16.7169 20.8284 17.0995 20.8045 17.5066C20.7806 17.9137 20.913 18.3146 21.1748 18.6273C21.4365 18.94 21.8078 19.141 22.2128 19.1892L22.4 19.2004H25.6C26.0078 19.1999 26.4 19.0438 26.6965 18.7638C26.9931 18.4839 27.1715 18.1013 27.1954 17.6942C27.2193 17.2871 27.0869 16.8862 26.8251 16.5735C26.5634 16.2607 26.1921 16.0598 25.7872 16.0116L25.6 16.0004ZM13.6 12.8004C12.8573 12.8004 12.1452 13.0954 11.6201 13.6205C11.095 14.1456 10.8 14.8578 10.8 15.6004C10.8 16.343 11.095 17.0552 11.6201 17.5803C12.1452 18.1054 12.8573 18.4004 13.6 18.4004C14.3426 18.4004 15.0547 18.1054 15.5799 17.5803C16.105 17.0552 16.4 16.343 16.4 15.6004C16.4 14.8578 16.105 14.1456 15.5799 13.6205C15.0547 13.0954 14.3426 12.8004 13.6 12.8004Z" fill="#7A0202"/>
</svg>
