<svg width="26" height="26" viewBox="0 0 26 26" fill="none" xmlns="http://www.w3.org/2000/svg">
<path d="M17.3334 7.58268C17.3334 9.01927 16.7627 10.397 15.7469 11.4128C14.7311 12.4287 13.3533 12.9993 11.9167 12.9993C10.4802 12.9993 9.10241 12.4287 8.08659 11.4128C7.07076 10.397 6.50008 9.01927 6.50008 7.58268C6.50008 6.14609 7.07076 4.76834 8.08659 3.75252C9.10241 2.7367 10.4802 2.16602 11.9167 2.16602C13.3533 2.16602 14.7311 2.7367 15.7469 3.75252C16.7627 4.76834 17.3334 6.14609 17.3334 7.58268ZM11.9167 14.0827C14.5124 14.0827 16.873 14.8345 18.6096 15.894C19.4762 16.4227 20.2172 17.0467 20.7524 17.7248C21.2789 18.3911 21.6667 19.1884 21.6667 20.041C21.6667 20.9564 21.2215 21.6779 20.5802 22.1925C19.9735 22.68 19.1729 23.0028 18.3225 23.2282C16.613 23.6799 14.3315 23.8327 11.9167 23.8327C9.502 23.8327 7.2205 23.681 5.511 23.2282C4.66058 23.0028 3.86 22.68 3.25333 22.1925C2.61091 21.6768 2.16675 20.9564 2.16675 20.041C2.16675 19.1884 2.55458 18.3911 3.08108 17.7238C3.61625 17.0467 4.35616 16.4238 5.22391 15.8929C6.9605 14.8356 9.32216 14.0827 11.9167 14.0827ZM22.7501 14.0827C23.0262 14.083 23.2918 14.1887 23.4926 14.3783C23.6933 14.5678 23.8142 14.8269 23.8303 15.1025C23.8465 15.3782 23.7568 15.6496 23.5796 15.8613C23.4024 16.0731 23.151 16.2092 22.8768 16.2418L22.7501 16.2493H21.6667C21.3906 16.249 21.125 16.1433 20.9243 15.9538C20.7235 15.7642 20.6027 15.5051 20.5865 15.2295C20.5703 14.9539 20.66 14.6824 20.8372 14.4707C21.0144 14.259 21.2658 14.1229 21.54 14.0903L21.6667 14.0827H22.7501ZM19.5001 11.916C19.5001 11.6287 19.6142 11.3531 19.8174 11.15C20.0205 10.9468 20.2961 10.8327 20.5834 10.8327H22.7501C23.0374 10.8327 23.3129 10.9468 23.5161 11.15C23.7193 11.3531 23.8334 11.6287 23.8334 11.916C23.8334 12.2033 23.7193 12.4789 23.5161 12.682C23.3129 12.8852 23.0374 12.9993 22.7501 12.9993H20.5834C20.2961 12.9993 20.0205 12.8852 19.8174 12.682C19.6142 12.4789 19.5001 12.2033 19.5001 11.916ZM19.5001 7.58268C19.2128 7.58268 18.9372 7.69682 18.734 7.89998C18.5309 8.10315 18.4167 8.3787 18.4167 8.66602C18.4167 8.95333 18.5309 9.22888 18.734 9.43205C18.9372 9.63521 19.2128 9.74935 19.5001 9.74935H22.7501C23.0374 9.74935 23.3129 9.63521 23.5161 9.43205C23.7193 9.22888 23.8334 8.95333 23.8334 8.66602C23.8334 8.3787 23.7193 8.10315 23.5161 7.89998C23.3129 7.69682 23.0374 7.58268 22.7501 7.58268H19.5001Z" fill="white"/>
</svg>
