<svg width="24" height="24" viewBox="0 0 24 24" fill="none" xmlns="http://www.w3.org/2000/svg">
<path fill-rule="evenodd" clip-rule="evenodd" d="M10.694 1H12.806C14.644 1 16.1 1 17.239 1.153C18.411 1.311 19.36 1.643 20.109 2.391C20.857 3.14 21.189 4.089 21.347 5.261C21.5 6.401 21.5 7.856 21.5 9.694V13.806C21.5 15.644 21.5 17.1 21.347 18.239C21.189 19.411 20.857 20.36 20.109 21.109C19.36 21.857 18.411 22.189 17.239 22.347C16.099 22.5 14.644 22.5 12.806 22.5H10.694C8.856 22.5 7.4 22.5 6.261 22.347C5.089 22.189 4.14 21.857 3.391 21.109C2.643 20.36 2.311 19.411 2.153 18.239C2 17.099 2 15.644 2 13.806V9.694C2 7.856 2 6.4 2.153 5.261C2.311 4.089 2.643 3.14 3.391 2.391C4.14 1.643 5.089 1.311 6.261 1.153C7.401 1 8.856 1 10.694 1ZM6.46 2.64C5.454 2.775 4.874 3.029 4.45 3.452C4.028 3.875 3.774 4.455 3.639 5.461C3.501 6.489 3.499 7.843 3.499 9.75V13.75C3.499 15.657 3.501 17.012 3.639 18.04C3.774 19.045 4.028 19.625 4.451 20.048C4.874 20.471 5.454 20.725 6.46 20.86C7.488 20.998 8.842 21 10.749 21H12.749C14.656 21 16.011 20.998 17.039 20.86C18.044 20.725 18.624 20.471 19.047 20.048C19.47 19.625 19.724 19.045 19.859 18.039C19.997 17.012 19.999 15.657 19.999 13.75V9.75C19.999 7.843 19.997 6.489 19.859 5.46C19.724 4.455 19.47 3.875 19.047 3.452C18.624 3.029 18.044 2.775 17.038 2.64C16.011 2.502 14.656 2.5 12.749 2.5H10.749C8.842 2.5 7.489 2.502 6.46 2.64ZM7 9.75C7 9.55109 7.07902 9.36032 7.21967 9.21967C7.36032 9.07902 7.55109 9 7.75 9H15.75C15.9489 9 16.1397 9.07902 16.2803 9.21967C16.421 9.36032 16.5 9.55109 16.5 9.75C16.5 9.94891 16.421 10.1397 16.2803 10.2803C16.1397 10.421 15.9489 10.5 15.75 10.5H7.75C7.55109 10.5 7.36032 10.421 7.21967 10.2803C7.07902 10.1397 7 9.94891 7 9.75ZM7 13.75C7 13.5511 7.07902 13.3603 7.21967 13.2197C7.36032 13.079 7.55109 13 7.75 13H12.75C12.9489 13 13.1397 13.079 13.2803 13.2197C13.421 13.3603 13.5 13.5511 13.5 13.75C13.5 13.9489 13.421 14.1397 13.2803 14.2803C13.1397 14.421 12.9489 14.5 12.75 14.5H7.75C7.55109 14.5 7.36032 14.421 7.21967 14.2803C7.07902 14.1397 7 13.9489 7 13.75Z" fill="#530404"/>
</svg>
