<svg width="26" height="26" viewBox="0 0 26 26" fill="none" xmlns="http://www.w3.org/2000/svg">
<g clip-path="url(#clip0_10566_27095)">
<path fill-rule="evenodd" clip-rule="evenodd" d="M3.29126 12.1865C1.98584 12.1865 0.857551 11.062 0.85376 9.58489L0.855926 9.55077C0.857732 9.51357 0.864593 9.44406 0.87651 9.34223C0.901426 9.13693 0.953968 8.79677 1.06393 8.29139C1.28384 7.27956 1.73072 5.61339 2.63747 3.05022C3.01013 1.9956 3.87897 1.26922 4.92872 1.15656C10.322 0.584533 15.7606 0.584533 21.1538 1.15656C22.2036 1.26922 23.0724 1.99614 23.4451 3.05022C24.3518 5.61339 24.7992 7.27956 25.0186 8.29139C25.1286 8.79677 25.1811 9.13693 25.206 9.34223C25.2162 9.42285 25.2238 9.50378 25.2288 9.58489C25.225 11.062 24.0967 12.1865 22.7913 12.1865C21.4837 12.1865 20.3538 11.0582 20.3538 9.57785C20.3538 9.36236 20.2682 9.1557 20.1158 9.00333C19.9634 8.85095 19.7567 8.76535 19.5413 8.76535C19.3258 8.76535 19.1191 8.85095 18.9667 9.00333C18.8144 9.1557 18.7288 9.36236 18.7288 9.57785C18.7288 11.0582 17.5988 12.1865 16.2913 12.1865C14.9837 12.1865 13.8538 11.0582 13.8538 9.57785C13.8538 9.36236 13.7682 9.1557 13.6158 9.00333C13.4634 8.85095 13.2567 8.76535 13.0413 8.76535C12.8258 8.76535 12.6191 8.85095 12.4667 9.00333C12.3144 9.1557 12.2288 9.36236 12.2288 9.57785C12.2288 11.0582 11.0988 12.1865 9.79126 12.1865C8.48368 12.1865 7.35376 11.0582 7.35376 9.57785C7.35376 9.36236 7.26816 9.1557 7.11578 9.00333C6.96341 8.85095 6.75675 8.76535 6.54126 8.76535C6.32577 8.76535 6.11911 8.85095 5.96674 9.00333C5.81436 9.1557 5.72876 9.36236 5.72876 9.57785C5.72876 11.0582 4.59884 12.1865 3.29126 12.1865ZM1.89593 13.5591V16.2512C1.89593 18.6816 1.99343 20.5016 2.10338 21.7784C2.25722 23.5702 3.67963 24.8837 5.44005 24.9915C7.04934 25.0901 9.52747 25.1887 13.0001 25.1887C16.4722 25.1887 18.9508 25.0901 20.5601 24.9915C22.3206 24.8832 23.743 23.5702 23.8968 21.7784C24.0068 20.5016 24.1043 18.6816 24.1043 16.2512V13.5894C23.6827 13.7391 23.2386 13.8151 22.7913 13.8142C21.4463 13.8142 20.2763 13.1426 19.5413 12.1199C18.8068 13.142 17.6362 13.8142 16.2913 13.8142C14.9463 13.8142 13.7763 13.1426 13.0413 12.1199C12.3068 13.142 11.1362 13.8142 9.79126 13.8142C8.4463 13.8142 7.2763 13.1426 6.54126 12.1199C5.80676 13.142 4.63622 13.8142 3.29126 13.8142C2.81446 13.8152 2.34153 13.7287 1.89593 13.5591ZM13.0001 17.0637C11.7418 17.0637 10.8719 17.1558 10.2918 17.2598C9.89851 17.3302 9.59734 17.6552 9.56538 18.2239C9.52043 19.0272 9.47926 20.2893 9.47926 22.2095C9.47926 22.6429 9.82593 22.9928 10.2479 22.9998C11.0828 23.0143 12.0002 23.0217 13.0001 23.022C14.0004 23.0217 14.9178 23.0143 15.7523 22.9998C15.9583 22.9947 16.1541 22.9091 16.2978 22.7614C16.4415 22.6137 16.5216 22.4156 16.5209 22.2095C16.5209 20.2893 16.4798 19.0272 16.4348 18.2239C16.4034 17.6552 16.1017 17.3302 15.709 17.2598C15.1283 17.1558 14.2584 17.0637 13.0001 17.0637Z" fill="white"/>
</g>
<defs>
<clipPath id="clip0_10566_27095">
<rect width="26" height="26" fill="white"/>
</clipPath>
</defs>
</svg>
