<svg width="34" height="34" viewBox="0 0 34 34" fill="none" xmlns="http://www.w3.org/2000/svg">
<path fill-rule="evenodd" clip-rule="evenodd" d="M20.1877 3.54167C20.1877 3.44774 20.1503 3.35765 20.0839 3.29123C20.0175 3.22481 19.9274 3.1875 19.8335 3.1875H9.91683C8.88359 3.1875 7.89267 3.59795 7.16206 4.32856C6.43145 5.05917 6.021 6.05009 6.021 7.08333V26.9167C6.021 27.9499 6.43145 28.9408 7.16206 29.6714C7.89267 30.402 8.88359 30.8125 9.91683 30.8125H24.0835C25.1167 30.8125 26.1077 30.402 26.8383 29.6714C27.5689 28.9408 27.9793 27.9499 27.9793 26.9167V12.9583C27.9793 12.8643 27.942 12.7742 27.8756 12.7078C27.8092 12.6414 27.7191 12.6041 27.6252 12.6041H21.2502C20.9684 12.6041 20.6981 12.4921 20.4989 12.2929C20.2996 12.0936 20.1877 11.8234 20.1877 11.5416V3.54167ZM21.2502 17.3542C21.532 17.3542 21.8022 17.4661 22.0015 17.6654C22.2007 17.8646 22.3127 18.1349 22.3127 18.4167C22.3127 18.6985 22.2007 18.9687 22.0015 19.168C21.8022 19.3672 21.532 19.4792 21.2502 19.4792H12.7502C12.4684 19.4792 12.1981 19.3672 11.9989 19.168C11.7996 18.9687 11.6877 18.6985 11.6877 18.4167C11.6877 18.1349 11.7996 17.8646 11.9989 17.6654C12.1981 17.4661 12.4684 17.3542 12.7502 17.3542H21.2502ZM21.2502 23.0208C21.532 23.0208 21.8022 23.1328 22.0015 23.332C22.2007 23.5313 22.3127 23.8015 22.3127 24.0833C22.3127 24.3651 22.2007 24.6354 22.0015 24.8346C21.8022 25.0339 21.532 25.1458 21.2502 25.1458H12.7502C12.4684 25.1458 12.1981 25.0339 11.9989 24.8346C11.7996 24.6354 11.6877 24.3651 11.6877 24.0833C11.6877 23.8015 11.7996 23.5313 11.9989 23.332C12.1981 23.1328 12.4684 23.0208 12.7502 23.0208H21.2502Z" fill="#524C4C"/>
<path d="M22.3125 4.00056C22.3125 3.7399 22.5859 3.57415 22.7885 3.73706C22.9604 3.8759 23.1129 4.0374 23.2461 4.22156L27.5145 10.1673C27.6108 10.3033 27.506 10.479 27.3388 10.479H22.6667C22.5727 10.479 22.4827 10.4417 22.4162 10.3752C22.3498 10.3088 22.3125 10.2187 22.3125 10.1248V4.00056Z" fill="#524C4C"/>
</svg>
