<svg width="24" height="24" viewBox="0 0 24 24" fill="none" xmlns="http://www.w3.org/2000/svg">
<path d="M21.8383 4.64369C19.4666 3.03848 16.4339 3.99232 15.0633 6.77311L11.6084 13.7903C10.6087 15.8166 11.8957 16.5247 13.3307 17.5335L16.6552 19.7832C17.781 20.5446 19.2189 20.0926 19.8683 18.7744L23.42 11.5629C24.6131 9.13966 23.9051 6.04269 21.8383 4.64369Z" fill="#EA4335"/>
<path d="M17.9292 7.54858L14.6047 5.2989C12.7695 4.10445 11.7302 4.02539 10.9768 5.42952L6.07365 15.3856C4.70455 18.1647 5.51955 21.7188 7.88978 23.3206C9.95658 24.7196 12.598 23.8895 13.7912 21.4662L18.7882 11.3176C19.4404 9.99768 19.0549 8.30996 17.9292 7.54858Z" fill="#FBBC04"/>
<path d="M18.5696 2.43041L16.2346 0.84926C13.6518 -0.898601 10.3493 0.13774 8.8586 3.16598L4.41275 12.194C3.75606 13.5259 4.14597 15.2308 5.282 15.9991L7.89703 17.7693C9.18838 18.6441 10.8389 18.125 11.585 16.6109L16.6641 6.29737C17.7165 4.16108 20.0457 3.42894 21.8677 4.66292L18.5696 2.43041Z" fill="#34A853"/>
<path d="M9.48993 5.74899L6.9658 4.0441C5.84002 3.28447 4.40207 3.73475 3.75272 5.05123L0.724331 11.1868C-0.766414 14.2064 0.117478 18.07 2.70025 19.8127L4.62195 21.1102L6.95259 22.6845L7.96402 23.3668C6.16838 21.9575 5.59818 19.1338 6.69607 16.9098L7.48028 15.3218L10.3518 9.50422C10.9997 8.19121 10.6142 6.50863 9.48993 5.74899Z" fill="#4285F4"/>
</svg>
