<svg width="22" height="22" viewBox="0 0 22 22" fill="none" xmlns="http://www.w3.org/2000/svg">
<path d="M0.784622 10.9881C0.784622 8.69967 0.784622 7.55546 1.30382 6.60692C1.82302 5.65839 2.77157 5.06969 4.66865 3.89231L6.66865 2.65105C8.67401 1.40647 9.67672 0.78418 10.7846 0.78418C11.8925 0.78418 12.8952 1.40647 14.9006 2.65105L16.9006 3.8923C18.7977 5.06969 19.7462 5.65839 20.2654 6.60692C20.7846 7.55546 20.7846 8.69967 20.7846 10.9881V12.5092C20.7846 16.41 20.7846 18.3605 19.613 19.5723C18.4415 20.7842 16.5558 20.7842 12.7846 20.7842H8.78462C5.01338 20.7842 3.12777 20.7842 1.95619 19.5723C0.784622 18.3605 0.784622 16.41 0.784622 12.5092V10.9881Z" fill="white" stroke="#540405" stroke-width="1.56923"/>
</svg>
