<svg width="24" height="24" viewBox="0 0 24 24" fill="none" xmlns="http://www.w3.org/2000/svg">
<path d="M15.2446 17.0828H8.75488V2.04492H15.2446V17.0828Z" fill="#FF5F00"/>
<path fill-rule="evenodd" clip-rule="evenodd" d="M6.77926 21.3967V22.6662V23.9358H6.35108V23.6275C6.21527 23.8562 6.00921 23.9997 5.72913 23.9997C5.17692 23.9997 4.74403 23.4421 4.74403 22.6662C4.74403 21.891 5.17692 21.3328 5.72913 21.3328C6.00921 21.3328 6.21527 21.4763 6.35108 21.7049V21.3967H6.77926ZM5.78238 21.8533C5.41175 21.8533 5.18492 22.2199 5.18492 22.6662C5.18492 23.1125 5.41175 23.4791 5.78238 23.4791C6.13655 23.4791 6.37562 23.1283 6.37562 22.6662C6.37562 22.2041 6.13655 21.8533 5.78238 21.8533ZM21.2488 22.6662C21.2488 22.2199 21.4757 21.8533 21.8463 21.8533C22.2009 21.8533 22.4395 22.2041 22.4395 22.6662C22.4395 23.1283 22.2009 23.4791 21.8463 23.4791C21.4757 23.4791 21.2488 23.1125 21.2488 22.6662ZM22.8437 20.377V22.6662V23.9358H22.415V23.6275C22.2792 23.8562 22.0731 23.9997 21.793 23.9997C21.2408 23.9997 20.8079 23.4421 20.8079 22.6662C20.8079 21.891 21.2408 21.3328 21.793 21.3328C22.0731 21.3328 22.2792 21.4763 22.415 21.7049V20.377H22.8437ZM12.0943 21.8272C12.3702 21.8272 12.5475 22.0502 12.5928 22.4431H11.5709C11.6166 22.0765 11.7892 21.8272 12.0943 21.8272ZM11.1219 22.6662C11.1219 21.8745 11.5256 21.3328 12.1028 21.3328C12.6546 21.3328 13.0337 21.8745 13.0379 22.6662C13.0379 22.7404 13.0337 22.8097 13.0294 22.8784H11.5671C11.6289 23.3357 11.8802 23.5005 12.1561 23.5005C12.3536 23.5005 12.564 23.4044 12.729 23.2347L12.9389 23.6439C12.6998 23.9041 12.4282 23.9997 12.1316 23.9997C11.5421 23.9997 11.1219 23.4737 11.1219 22.6662ZM17.2731 22.6662C17.2731 22.2199 17.4999 21.8533 17.8706 21.8533C18.2247 21.8533 18.4638 22.2041 18.4638 22.6662C18.4638 23.1283 18.2247 23.4791 17.8706 23.4791C17.4999 23.4791 17.2731 23.1125 17.2731 22.6662ZM18.8674 21.3967V22.6662V23.9358H18.4392V23.6275C18.303 23.8562 18.0974 23.9997 17.8172 23.9997C17.265 23.9997 16.8321 23.4421 16.8321 22.6662C16.8321 21.891 17.265 21.3328 17.8172 21.3328C18.0974 21.3328 18.303 21.4763 18.4392 21.7049V21.3967H18.8674ZM14.8548 22.6662C14.8548 23.4366 15.2708 23.9997 15.9055 23.9997C16.2021 23.9997 16.3997 23.9145 16.6138 23.6968L16.4082 23.2506C16.2474 23.3995 16.0786 23.4791 15.8928 23.4791C15.5509 23.4737 15.2996 23.1551 15.2996 22.6662C15.2996 22.1774 15.5509 21.8587 15.8928 21.8533C16.0786 21.8533 16.2474 21.9329 16.4082 22.0819L16.6138 21.6356C16.3997 21.4179 16.2021 21.3328 15.9055 21.3328C15.2708 21.3328 14.8548 21.8959 14.8548 22.6662ZM19.8563 21.7049C19.9676 21.4818 20.1284 21.3328 20.3755 21.3328C20.4622 21.3328 20.5858 21.3541 20.6806 21.4021L20.5486 21.9226C20.458 21.8745 20.3674 21.8587 20.2807 21.8587C20.0006 21.8587 19.8605 22.0922 19.8605 22.5124V23.9358H19.4319V21.3967H19.8563V21.7049ZM8.89712 21.5985C8.691 21.4234 8.40715 21.3328 8.09399 21.3328C7.59509 21.3328 7.27393 21.6411 7.27393 22.1458C7.27393 22.5598 7.51306 22.8152 7.95349 22.8948L8.15578 22.9319C8.39061 22.9745 8.50148 23.0541 8.50148 23.1976C8.50148 23.394 8.3449 23.5059 8.05252 23.5059C7.7559 23.5059 7.54184 23.3837 7.3975 23.2402L7.19568 23.6701C7.43051 23.8932 7.72713 23.9997 8.04828 23.9997C8.61697 23.9997 8.9466 23.6542 8.9466 23.1709C8.9466 22.7245 8.68723 22.4911 8.25857 22.4115L8.05675 22.3737C7.87146 22.3421 7.72289 22.2947 7.72289 22.1244C7.72289 21.9384 7.86293 21.8272 8.09776 21.8272C8.34913 21.8272 8.59243 21.9493 8.71177 22.0448L8.89712 21.5985ZM13.9033 21.7049C14.0141 21.4818 14.1749 21.3328 14.422 21.3328C14.5087 21.3328 14.6323 21.3541 14.727 21.4021L14.595 21.9226C14.5045 21.8745 14.414 21.8587 14.3272 21.8587C14.0471 21.8587 13.907 22.0922 13.907 22.5124V23.9358H13.4789V21.3967H13.9033V21.7049ZM10.7678 21.3967H10.0675V20.6262H9.63462V21.3967H9.23521V21.9013H9.63462V23.0596C9.63462 23.6488 9.81191 23.9997 10.3184 23.9997C10.5042 23.9997 10.7183 23.9255 10.8541 23.8032L10.7305 23.3302C10.6027 23.4257 10.4627 23.4737 10.3514 23.4737C10.1373 23.4737 10.0675 23.3034 10.0675 23.0486V21.9013H10.7678V21.3967ZM4.36532 22.3421V23.9358H3.93244V22.5227C3.93244 22.0922 3.7924 21.8533 3.50002 21.8533C3.21564 21.8533 3.01805 22.0874 3.01805 22.5282V23.9358H2.58516V22.5227C2.58516 22.0922 2.44135 21.8533 2.15697 21.8533C1.86413 21.8533 1.67461 22.0874 1.67461 22.5282V23.9358H1.24219V21.3967H1.67084V21.7097C1.83165 21.4125 2.03724 21.3328 2.24753 21.3328C2.54838 21.3328 2.76251 21.5031 2.89832 21.7845C3.07983 21.4283 3.3392 21.3273 3.59057 21.3328C4.06871 21.3383 4.36532 21.742 4.36532 22.3421Z" fill="white"/>
<path d="M9.16725 9.56378C9.16725 6.51326 10.2749 3.79593 11.9999 2.04482C10.7385 0.764298 9.14648 0 7.41633 0C3.32033 0 0 4.2818 0 9.56378C0 14.8458 3.32033 19.1276 7.41633 19.1276C9.14648 19.1276 10.7385 18.3632 11.9999 17.0827C10.2749 15.3316 9.16725 12.6143 9.16725 9.56378Z" fill="#EB001B"/>
<path d="M24.0005 9.56378C24.0005 14.8458 20.6801 19.1276 16.5841 19.1276C14.8539 19.1276 13.2619 18.3632 12 17.0827C13.7255 15.3316 14.8332 12.6143 14.8332 9.56378C14.8332 6.51326 13.7255 3.79593 12 2.04482C13.2619 0.764298 14.8539 0 16.5841 0C20.6801 0 24.0005 4.2818 24.0005 9.56378Z" fill="#F79E1B"/>
</svg>
