<svg width="26" height="26" viewBox="0 0 26 26" fill="none" xmlns="http://www.w3.org/2000/svg">
<path d="M4.33334 2.16699H21.6667C22.2625 2.16699 22.7728 2.37933 23.1974 2.80399C23.6221 3.22866 23.8341 3.73855 23.8333 4.33366V16.2503C23.8333 16.8462 23.6214 17.3564 23.1974 17.7811C22.7735 18.2057 22.2632 18.4177 21.6667 18.417H17.3333V22.0732C17.3333 22.4885 17.1618 22.8002 16.8188 23.0082C16.4757 23.2162 16.1236 23.2295 15.7625 23.0482L13.4875 21.9107C13.3431 21.8205 13.1806 21.7753 13 21.7753C12.8194 21.7753 12.6569 21.8205 12.5125 21.9107L10.2375 23.0482C9.87639 23.2288 9.52431 23.2154 9.18125 23.0082C8.8382 22.8009 8.66667 22.4892 8.66667 22.0732V18.417H4.33334C3.7375 18.417 3.22762 18.205 2.80367 17.7811C2.37973 17.3571 2.16739 16.8469 2.16667 16.2503V4.33366C2.16667 3.73783 2.37901 3.22794 2.80367 2.80399C3.22834 2.38005 3.73823 2.16771 4.33334 2.16699ZM4.33334 14.0837H21.6667V10.8337H4.33334V14.0837Z" fill="white"/>
</svg>
