<svg width="33" height="11" viewBox="0 0 33 11" fill="none" xmlns="http://www.w3.org/2000/svg">
<path d="M8.29947 6.39259H8.89343C8.89557 6.39259 8.89771 6.39259 8.90091 6.39259C9.07931 6.39259 9.22567 6.53467 9.22994 6.71307V7.95762C9.22994 7.99394 9.22246 8.02919 9.21071 8.06124L9.21178 8.05911C9.16371 8.18837 9.04192 8.2781 8.89877 8.2781C8.89771 8.2781 8.89557 8.2781 8.8945 8.2781H8.30054C8.2984 8.2781 8.29626 8.2781 8.29413 8.2781C8.11572 8.2781 7.96937 8.13602 7.96403 7.95762V6.71201C7.96937 6.53467 8.11359 6.39259 8.29199 6.39259C8.29519 6.39259 8.29733 6.39259 8.30054 6.39259H8.29947ZM2.06605 3.75394H2.97089C3.1557 3.75607 3.30419 3.9067 3.30419 4.09151C3.30419 4.09365 3.30419 4.09472 3.30419 4.09579V5.21214C3.30419 5.21321 3.30419 5.21534 3.30419 5.21641C3.30419 5.40122 3.1557 5.55185 2.97089 5.55399H2.83735C2.58096 5.5572 2.32244 5.55399 2.06605 5.55399V3.75394ZM7.02181 1.65477C7.01967 1.65477 7.01646 1.65477 7.01326 1.65477C6.84447 1.65477 6.70773 1.78937 6.70346 1.95602V3.32235C6.7088 3.50075 6.85409 3.64284 7.03249 3.64284C7.03462 3.64284 7.03783 3.64284 7.03997 3.64284H8.92548C9.08038 3.66527 9.20003 3.7924 9.20964 3.94943V4.13745C9.2011 4.29128 9.08465 4.41627 8.93509 4.43657H8.93296H7.99821C7.95976 4.43443 7.91382 4.43229 7.86895 4.43229C6.76542 4.43229 5.8702 5.32751 5.8702 6.43105C5.8702 6.44066 5.8702 6.45028 5.8702 6.45989V6.45882V8.15311C5.86806 8.1905 5.86593 8.2343 5.86593 8.2781C5.86593 9.32181 6.712 10.1668 7.75464 10.1668C7.7931 10.1668 7.83263 10.1658 7.87002 10.1636H7.86468H10.4542C10.4595 10.1636 10.4659 10.1636 10.4724 10.1636C10.9189 10.1636 11.2832 9.80788 11.2949 9.36348V9.36241V3.84047C11.3024 3.7753 11.3067 3.69945 11.3067 3.62361C11.3067 2.52328 10.4147 1.6302 9.31327 1.6302C9.20217 1.6302 9.0932 1.63874 8.98637 1.6569L8.99812 1.65583L7.02181 1.65477ZM12.3675 1.64729C12.1923 1.64836 12.0513 1.79151 12.0513 1.9667C12.0513 1.96777 12.0513 1.96884 12.0513 1.96991V5.26769C12.0491 5.2976 12.0491 5.33392 12.0491 5.36918C12.0491 6.49942 12.9657 7.41493 14.0949 7.41493C14.1173 7.41493 14.1398 7.41493 14.1622 7.41387H14.159H15.0606C15.0788 7.41387 15.0959 7.416 15.1119 7.41921H15.1098C15.2775 7.44164 15.4057 7.58372 15.4057 7.75571C15.4057 7.92664 15.2796 8.06765 15.1151 8.09116H15.113L15.0884 8.0965L14.6835 8.10504H12.9999C12.8258 8.10718 12.6848 8.24926 12.6848 8.42446V8.42553V9.88052C12.6848 9.88159 12.6848 9.88266 12.6848 9.88266C12.6848 10.0579 12.8247 10.1999 12.9999 10.2031H15.3362C15.3544 10.2042 15.3758 10.2042 15.3971 10.2042C16.5274 10.2042 17.4439 9.28763 17.4439 8.15739C17.4439 8.12213 17.4429 8.08688 17.4407 8.05163V8.05697V1.96991V1.96884C17.4407 1.79364 17.2997 1.65156 17.1256 1.64943H15.6973C15.5232 1.65156 15.3822 1.79364 15.3822 1.96884V1.96991C15.3758 3.02003 15.3822 4.00605 15.3822 4.98032C15.38 5.16407 15.2315 5.31149 15.0489 5.31363H14.4496C14.2647 5.31149 14.1163 5.16086 14.1163 4.97605C14.1163 4.97498 14.1163 4.97391 14.1163 4.97285C14.1227 3.96653 14.1098 2.97089 14.1098 1.96884V1.96777C14.1098 1.79257 13.9688 1.65049 13.7947 1.64836L12.3675 1.64729ZM0.309801 1.64729C0.138876 1.64836 0 1.7883 0 1.95923C0 1.96029 0 1.96136 0 1.96243V9.87091C0 9.87518 0 9.87946 0 9.88373C0 10.0472 0.127125 10.1807 0.287367 10.1925H0.288436H1.74343C1.91863 10.1914 2.05964 10.0493 2.05964 9.87411C2.05964 9.87305 2.05964 9.87305 2.05964 9.87198L2.06499 7.6585H3.43025C3.45161 7.65957 3.47725 7.65957 3.50289 7.65957C4.53592 7.65957 5.37238 6.82204 5.37238 5.79008C5.37238 5.75162 5.37131 5.71423 5.36918 5.67684V5.68218V3.62895C5.37131 3.59583 5.37238 3.55737 5.37238 3.51892C5.37238 2.48482 4.53378 1.64622 3.49969 1.64622C3.47512 1.64622 3.45054 1.64622 3.42597 1.64729H3.42918H0.309801ZM26.7999 1.56289C26.2658 1.56396 25.7776 1.76373 25.4069 2.09169L25.409 2.08956V1.92397C25.3994 1.75839 25.2638 1.62699 25.0971 1.62485H23.6688C23.4947 1.62806 23.3537 1.77014 23.3537 1.94534C23.3537 1.94641 23.3537 1.94748 23.3537 1.94854V9.85168C23.3537 9.85275 23.3537 9.85382 23.3537 9.85382C23.3537 10.029 23.4936 10.1711 23.6688 10.1743H25.0971C25.2573 10.1722 25.3887 10.0525 25.408 9.89655V4.22184C25.408 4.21543 25.408 4.20796 25.408 4.20155C25.408 3.92166 25.627 3.69305 25.9026 3.67809H25.9037H26.1654C26.2808 3.6877 26.3844 3.7315 26.4677 3.79881L26.4666 3.79774C26.5852 3.89709 26.66 4.04665 26.66 4.21223C26.66 4.2165 26.66 4.21971 26.66 4.22398V4.22291V9.66153L26.6653 9.86877C26.6653 10.044 26.8064 10.1882 26.9816 10.1903H28.4098C28.5797 10.1871 28.7175 10.0525 28.7239 9.88373V9.88266L28.7228 4.21437C28.7228 4.21009 28.7228 4.20582 28.7228 4.20048C28.7228 4.01887 28.8137 3.85756 28.9536 3.76141L28.9557 3.76035C29.0294 3.71121 29.1192 3.67809 29.2153 3.66954H29.2175H29.4813C29.758 3.68877 29.9759 3.91738 29.9759 4.19727C29.9759 4.20261 29.9759 4.20902 29.9759 4.21437V4.2133C29.9823 6.07638 29.9813 7.95121 29.9813 9.85168C29.9813 10.0269 30.1223 10.1711 30.2975 10.1732H31.7258C31.8999 10.1711 32.0409 10.029 32.0409 9.85489C32.0409 9.85382 32.0409 9.85275 32.0409 9.85168V3.78705C32.0431 3.75607 32.0431 3.71975 32.0431 3.68343C32.0431 3.4452 32.0025 3.21552 31.9288 3.00187L31.933 3.01682C31.6403 2.16647 30.8498 1.5661 29.9183 1.56183H29.898C29.2922 1.56183 28.7453 1.81821 28.3607 2.22843L28.3596 2.2295C27.974 1.81821 27.427 1.56289 26.8202 1.56183L26.7999 1.56289ZM21.1594 0.00106871C21.1402 0.00106871 21.122 0.00320539 21.1039 0.00641024H21.106C20.198 0.259593 20.3806 1.53939 18.728 1.64836H18.5678C18.5656 1.64836 18.5646 1.64836 18.5624 1.64836C18.54 1.64836 18.5176 1.65049 18.4962 1.65583C18.3541 1.69109 18.2516 1.81714 18.2516 1.96777C18.2516 1.96884 18.2516 1.96884 18.2516 1.96991V3.42491C18.2516 3.42598 18.2516 3.42704 18.2516 3.42811C18.2516 3.60331 18.3926 3.74539 18.5678 3.74646H19.4288V9.91791C19.4288 9.91898 19.4288 9.92005 19.4288 9.92219C19.4288 10.0942 19.5677 10.2341 19.7397 10.2363H21.1519C21.3239 10.2341 21.4628 10.0942 21.4628 9.92112C21.4628 9.92005 21.4628 9.91898 21.4628 9.91791V3.74646H22.264C22.4382 3.74432 22.5792 3.60331 22.5792 3.42811C22.5792 3.42704 22.5792 3.42597 22.5792 3.42384V1.96884V1.96777C22.5792 1.79257 22.4382 1.65049 22.264 1.64836H21.4468V0.293778C21.4468 0.292709 21.4468 0.291641 21.4468 0.290573C21.4468 0.130331 21.3175 0.00106828 21.1584 0L21.1594 0.00106871Z" fill="black"/>
</svg>
