<svg width="42" height="42" viewBox="0 0 42 42" fill="none" xmlns="http://www.w3.org/2000/svg">
<path d="M21 35C13.2825 35 7 28.7175 7 21C7 13.2825 13.2825 7 21 7C28.7175 7 35 13.2825 35 21C35 28.7175 28.7175 35 21 35ZM21 3.5C11.3225 3.5 3.5 11.3225 3.5 21C3.5 30.6775 11.3225 38.5 21 38.5C30.6775 38.5 38.5 30.6775 38.5 21C38.5 11.3225 30.6775 3.5 21 3.5ZM25.5325 14L21 18.5325L16.4675 14L14 16.4675L18.5325 21L14 25.5325L16.4675 28L21 23.4675L25.5325 28L28 25.5325L23.4675 21L28 16.4675L25.5325 14Z" fill="#B51212"/>
</svg>
