<svg width="24" height="24" viewBox="0 0 24 24" fill="none" xmlns="http://www.w3.org/2000/svg">
<path d="M20.0002 10.9997C19.7556 9.23992 18.9392 7.60937 17.6768 6.3592C16.4144 5.10904 14.7759 4.30862 13.0138 4.08126C11.2517 3.85389 9.46377 4.21219 7.92535 5.10095C6.38693 5.98972 5.1834 7.35964 4.50015 8.99971M4.00015 4.99971V8.99971H8.00015M4.00015 12.9997C4.24471 14.7595 5.06108 16.39 6.32351 17.6402C7.58594 18.8904 9.2244 19.6908 10.9865 19.9182C12.7486 20.1455 14.5365 19.7872 16.075 18.8985C17.6134 18.0097 18.8169 16.6398 19.5002 14.9997M20.0002 18.9997V14.9997H16.0002" stroke="white" stroke-width="2" stroke-linecap="round" stroke-linejoin="round"/>
</svg>
