<svg width="40" height="40" viewBox="0 0 40 40" fill="none" xmlns="http://www.w3.org/2000/svg">
<g clip-path="url(#clip0_10681_13529)">
<path d="M28.5009 17.1252C28.7286 16.8895 28.8546 16.5737 28.8517 16.246C28.8489 15.9182 28.7174 15.6047 28.4857 15.373C28.2539 15.1412 27.9404 15.0097 27.6126 15.0069C27.2849 15.004 26.9691 15.13 26.7334 15.3577L17.6084 24.4827L13.4834 20.3577C13.2476 20.13 12.9319 20.004 12.6041 20.0069C12.2764 20.0097 11.9629 20.1412 11.7311 20.373C11.4993 20.6047 11.3679 20.9182 11.365 21.246C11.3622 21.5737 11.4882 21.8895 11.7159 22.1252L16.7159 27.1252C16.9503 27.3596 17.2682 27.4912 17.5996 27.4912C17.9311 27.4912 18.249 27.3596 18.4834 27.1252L28.4834 17.1252H28.5009Z" fill="#136405"/>
<path fill-rule="evenodd" clip-rule="evenodd" d="M20 0C8.95 0 0 8.95 0 20C0 31.05 8.95 40 20 40C31.05 40 40 31.05 40 20C40 8.95 31.05 0 20 0ZM2.5 20C2.5 10.325 10.325 2.5 20 2.5C29.675 2.5 37.5 10.325 37.5 20C37.5 29.675 29.675 37.5 20 37.5C10.325 37.5 2.5 29.675 2.5 20Z" fill="#136405"/>
</g>
<defs>
<clipPath id="clip0_10681_13529">
<rect width="40" height="40" fill="white"/>
</clipPath>
</defs>
</svg>
